<svg width="561" height="216" xmlns="http://www.w3.org/2000/svg" xmlns:xlink="http://www.w3.org/1999/xlink" xml:space="preserve" overflow="hidden"><defs><clipPath id="clip0"><rect x="0" y="0" width="561" height="216"/></clipPath><clipPath id="clip1"><rect x="0" y="0" width="561" height="215"/></clipPath></defs><g clip-path="url(#clip0)"><g clip-path="url(#clip1)"><path d="M46.3841 2.39617 46.3841 92.2524" stroke="#000000" stroke-width="4.79233" stroke-linecap="round" stroke-linejoin="miter" stroke-miterlimit="4" stroke-opacity="1" fill="none" fill-rule="nonzero" transform="matrix(0 1 -1.01147 0 95.7343 29.3457)"/><path d="M61.3602 32.3482 61.3602 62.3003" stroke="#000000" stroke-width="4.79233" stroke-linecap="round" stroke-linejoin="miter" stroke-miterlimit="4" stroke-opacity="1" fill="none" fill-rule="nonzero" transform="matrix(0 1 -1.01147 0 95.7343 29.3457)"/><path d="M76.3366 2.39617 76.3366 92.2524" stroke="#000000" stroke-width="4.79233" stroke-linecap="round" stroke-linejoin="miter" stroke-miterlimit="4" stroke-opacity="1" fill="none" fill-rule="nonzero" transform="matrix(0 1 -1.01147 0 95.7343 29.3457)"/><path d="M91.3127 32.3482 91.3127 62.3003" stroke="#000000" stroke-width="4.79233" stroke-linecap="round" stroke-linejoin="miter" stroke-miterlimit="4" stroke-opacity="1" fill="none" fill-rule="nonzero" transform="matrix(0 1 -1.01147 0 95.7343 29.3457)"/><path d="M31.4082 47.3243 43.3889 47.3243" stroke="#000000" stroke-width="1.79713" stroke-linecap="round" stroke-linejoin="miter" stroke-miterlimit="4" stroke-opacity="1" fill="none" fill-rule="nonzero" transform="matrix(0 1 -1.01147 0 95.7343 29.3457)"/><path d="M121.265 47.3243 91.3127 47.3243" stroke="#787878" stroke-width="2.91201" stroke-linecap="round" stroke-linejoin="miter" stroke-miterlimit="4" stroke-opacity="1" fill="none" fill-rule="nonzero" transform="matrix(0 1 -1.01147 0 95.7343 29.3457)"/><text fill="#8C8C8C" fill-opacity="1" font-family="Arial,Arial_MSFontService,sans-serif" font-style="normal" font-variant="normal" font-weight="400" font-stretch="normal" font-size="3" text-anchor="start" direction="ltr" writing-mode="lr-tb" unicode-bidi="normal" text-decoration="none" transform="matrix(0 4.16001 -4.20773 0 52.2853 131)">1</text><path d="M1.45601 47.3243 31.4082 47.3243" stroke="#787878" stroke-width="2.91201" stroke-linecap="round" stroke-linejoin="miter" stroke-miterlimit="4" stroke-opacity="1" fill="none" fill-rule="nonzero" transform="matrix(0 1 -1.01147 0 95.7343 29.3457)"/><text fill="#8C8C8C" fill-opacity="1" font-family="Arial,Arial_MSFontService,sans-serif" font-style="normal" font-variant="normal" font-weight="400" font-stretch="normal" font-size="3" text-anchor="start" direction="ltr" writing-mode="lr-tb" unicode-bidi="normal" text-decoration="none" transform="matrix(0 4.16001 -4.20773 0 52.2853 42)">2</text><path d="M46.3841 2.39617 46.3841 92.2524" stroke="#000000" stroke-width="4.79233" stroke-linecap="round" stroke-linejoin="miter" stroke-miterlimit="4" stroke-opacity="1" fill="none" fill-rule="nonzero" transform="matrix(0 1 -1.01147 0 277.508 29.3457)"/><path d="M61.3602 32.3482 61.3602 62.3003" stroke="#000000" stroke-width="4.79233" stroke-linecap="round" stroke-linejoin="miter" stroke-miterlimit="4" stroke-opacity="1" fill="none" fill-rule="nonzero" transform="matrix(0 1 -1.01147 0 277.508 29.3457)"/><path d="M76.3366 2.39617 76.3366 92.2524" stroke="#000000" stroke-width="4.79233" stroke-linecap="round" stroke-linejoin="miter" stroke-miterlimit="4" stroke-opacity="1" fill="none" fill-rule="nonzero" transform="matrix(0 1 -1.01147 0 277.508 29.3457)"/><path d="M91.3127 32.3482 91.3127 62.3003" stroke="#000000" stroke-width="4.79233" stroke-linecap="round" stroke-linejoin="miter" stroke-miterlimit="4" stroke-opacity="1" fill="none" fill-rule="nonzero" transform="matrix(0 1 -1.01147 0 277.508 29.3457)"/><path d="M31.4082 47.3243 43.3889 47.3243" stroke="#000000" stroke-width="1.79713" stroke-linecap="round" stroke-linejoin="miter" stroke-miterlimit="4" stroke-opacity="1" fill="none" fill-rule="nonzero" transform="matrix(0 1 -1.01147 0 277.508 29.3457)"/><path d="M121.265 47.3243 91.3127 47.3243" stroke="#787878" stroke-width="2.91201" stroke-linecap="round" stroke-linejoin="miter" stroke-miterlimit="4" stroke-opacity="1" fill="none" fill-rule="nonzero" transform="matrix(0 1 -1.01147 0 277.508 29.3457)"/><text fill="#8C8C8C" fill-opacity="1" font-family="Arial,Arial_MSFontService,sans-serif" font-style="normal" font-variant="normal" font-weight="400" font-stretch="normal" font-size="3" text-anchor="start" direction="ltr" writing-mode="lr-tb" unicode-bidi="normal" text-decoration="none" transform="matrix(0 4.16001 -4.20773 0 234.059 131)">1</text><path d="M1.45601 47.3243 31.4082 47.3243" stroke="#787878" stroke-width="2.91201" stroke-linecap="round" stroke-linejoin="miter" stroke-miterlimit="4" stroke-opacity="1" fill="none" fill-rule="nonzero" transform="matrix(0 1 -1.01147 0 277.508 29.3457)"/><text fill="#8C8C8C" fill-opacity="1" font-family="Arial,Arial_MSFontService,sans-serif" font-style="normal" font-variant="normal" font-weight="400" font-stretch="normal" font-size="3" text-anchor="start" direction="ltr" writing-mode="lr-tb" unicode-bidi="normal" text-decoration="none" transform="matrix(0 4.16001 -4.20773 0 234.059 42)">2</text><path d="M46.3841 2.39617 46.3841 92.2524" stroke="#000000" stroke-width="4.79233" stroke-linecap="round" stroke-linejoin="miter" stroke-miterlimit="4" stroke-opacity="1" fill="none" fill-rule="nonzero" transform="matrix(0 1 -1.01147 0 459.282 29.3457)"/><path d="M61.3602 32.3482 61.3602 62.3003" stroke="#000000" stroke-width="4.79233" stroke-linecap="round" stroke-linejoin="miter" stroke-miterlimit="4" stroke-opacity="1" fill="none" fill-rule="nonzero" transform="matrix(0 1 -1.01147 0 459.282 29.3457)"/><path d="M76.3366 2.39617 76.3366 92.2524" stroke="#000000" stroke-width="4.79233" stroke-linecap="round" stroke-linejoin="miter" stroke-miterlimit="4" stroke-opacity="1" fill="none" fill-rule="nonzero" transform="matrix(0 1 -1.01147 0 459.282 29.3457)"/><path d="M91.3127 32.3482 91.3127 62.3003" stroke="#000000" stroke-width="4.79233" stroke-linecap="round" stroke-linejoin="miter" stroke-miterlimit="4" stroke-opacity="1" fill="none" fill-rule="nonzero" transform="matrix(0 1 -1.01147 0 459.282 29.3457)"/><path d="M31.4082 47.3243 43.3889 47.3243" stroke="#000000" stroke-width="1.79713" stroke-linecap="round" stroke-linejoin="miter" stroke-miterlimit="4" stroke-opacity="1" fill="none" fill-rule="nonzero" transform="matrix(0 1 -1.01147 0 459.282 29.3457)"/><path d="M121.265 47.3243 91.3127 47.3243" stroke="#787878" stroke-width="2.91201" stroke-linecap="round" stroke-linejoin="miter" stroke-miterlimit="4" stroke-opacity="1" fill="none" fill-rule="nonzero" transform="matrix(0 1 -1.01147 0 459.282 29.3457)"/><text fill="#8C8C8C" fill-opacity="1" font-family="Arial,Arial_MSFontService,sans-serif" font-style="normal" font-variant="normal" font-weight="400" font-stretch="normal" font-size="3" text-anchor="start" direction="ltr" writing-mode="lr-tb" unicode-bidi="normal" text-decoration="none" transform="matrix(0 4.16001 -4.20773 0 415.833 131)">1</text><path d="M1.45601 47.3243 31.4082 47.3243" stroke="#787878" stroke-width="2.91201" stroke-linecap="round" stroke-linejoin="miter" stroke-miterlimit="4" stroke-opacity="1" fill="none" fill-rule="nonzero" transform="matrix(0 1 -1.01147 0 459.282 29.3457)"/><text fill="#8C8C8C" fill-opacity="1" font-family="Arial,Arial_MSFontService,sans-serif" font-style="normal" font-variant="normal" font-weight="400" font-stretch="normal" font-size="3" text-anchor="start" direction="ltr" writing-mode="lr-tb" unicode-bidi="normal" text-decoration="none" transform="matrix(0 4.16001 -4.20773 0 415.833 42)">2</text><path d="M316.893 30.6849 227.036 30.6849" stroke="#404040" stroke-width="2.912" stroke-linecap="round" stroke-linejoin="miter" stroke-miterlimit="4" stroke-opacity="1" fill="none" fill-rule="nonzero" transform="matrix(1.01147 0 0 1 0 0.117417)"/><path d="M406.749 150.494 316.893 150.493" stroke="#404040" stroke-width="2.912" stroke-linecap="round" stroke-linejoin="miter" stroke-miterlimit="4" stroke-opacity="1" fill="#000000" fill-rule="nonzero" fill-opacity="1" transform="matrix(1.01147 0 0 1 0 0.117417)"/><path d="M316.893 150.493 316.893 30.6849" stroke="#404040" stroke-width="2.912" stroke-linecap="round" stroke-linejoin="miter" stroke-miterlimit="4" stroke-opacity="1" fill="none" fill-rule="nonzero" transform="matrix(1.01147 0 0 1 0 0.117417)"/><path d="M137.18 150.493 137.18 30.6849" stroke="#404040" stroke-width="2.912" stroke-linecap="round" stroke-linejoin="miter" stroke-miterlimit="4" stroke-opacity="1" fill="none" fill-rule="nonzero" transform="matrix(1.01147 0 0 1 0 0.117417)"/><path d="M227.036 150.494 137.18 150.493" stroke="#404040" stroke-width="2.912" stroke-linecap="round" stroke-linejoin="miter" stroke-miterlimit="4" stroke-opacity="1" fill="#000000" fill-rule="nonzero" fill-opacity="1" transform="matrix(1.01147 0 0 1 0 0.117417)"/><path d="M137.18 30.6849 47.3239 30.6849" stroke="#404040" stroke-width="2.912" stroke-linecap="round" stroke-linejoin="miter" stroke-miterlimit="4" stroke-opacity="1" fill="none" fill-rule="nonzero" transform="matrix(1.01147 0 0 1 0 0.117417)"/><path d="M526.558 210.398 526.558 30.6849" stroke="#404040" stroke-width="2.912" stroke-linecap="round" stroke-linejoin="miter" stroke-miterlimit="4" stroke-opacity="1" fill="none" fill-rule="nonzero" transform="matrix(1.01147 0 0 1 0 0.117417)"/><path d="M47.3239 210.398 526.558 210.398" stroke="#404040" stroke-width="2.912" stroke-linecap="round" stroke-linejoin="miter" stroke-miterlimit="4" stroke-opacity="1" fill="none" fill-rule="nonzero" transform="matrix(1.01147 0 0 1 0 0.117417)"/><path d="M526.558 30.6849 406.749 30.6849" stroke="#404040" stroke-width="2.912" stroke-linecap="round" stroke-linejoin="miter" stroke-miterlimit="4" stroke-opacity="1" fill="none" fill-rule="nonzero" transform="matrix(1.01147 0 0 1 0 0.117417)"/><path d="M47.3239 150.494 47.3239 210.398" stroke="#404040" stroke-width="2.912" stroke-linecap="round" stroke-linejoin="miter" stroke-miterlimit="4" stroke-opacity="1" fill="none" fill-rule="nonzero" transform="matrix(1.01147 0 0 1 0 0.117417)"/><text fill="#000000" fill-opacity="1" font-family="Arial,Arial_MSFontService,sans-serif" font-style="normal" font-variant="normal" font-weight="400" font-stretch="normal" font-size="5" text-anchor="start" direction="ltr" writing-mode="lr-tb" unicode-bidi="normal" text-decoration="none" transform="matrix(4.20773 0 0 4.16001 81.3186 17)">VCC1</text><text fill="#000000" fill-opacity="1" font-family="Arial,Arial_MSFontService,sans-serif" font-style="normal" font-variant="normal" font-weight="400" font-stretch="normal" font-size="5" text-anchor="start" direction="ltr" writing-mode="lr-tb" unicode-bidi="normal" text-decoration="none" transform="matrix(4.20773 0 0 4.16001 281.607 16)">VCC2</text><text fill="#000000" fill-opacity="1" font-family="Arial,Arial_MSFontService,sans-serif" font-style="normal" font-variant="normal" font-weight="400" font-stretch="normal" font-size="5" text-anchor="start" direction="ltr" writing-mode="lr-tb" unicode-bidi="normal" text-decoration="none" transform="matrix(4.20773 0 0 4.16001 500.409 17)">VCC3</text></g></g></svg>